<svg id="Capa_1" enable-background="new 0 0 512 512" height="512" viewBox="0 0 512 512" width="512" xmlns="http://www.w3.org/2000/svg"><g><path d="m479.5 0h-447c-17.92 0-32.5 14.587-32.5 32.517v75.05c0 4.143 3.358 7.5 7.5 7.5s7.5-3.357 7.5-7.5v-75.05c0-9.659 7.851-17.517 17.5-17.517h447c9.649 0 17.5 7.858 17.5 17.517v408.271c0 9.658-7.851 17.517-17.5 17.517h-158.5c-4.142 0-7.5 3.357-7.5 7.5s3.358 7.5 7.5 7.5h27.521v21.195c0 9.649 7.851 17.5 17.5 17.5h56.596c9.649 0 17.5-7.851 17.5-17.5v-21.196h39.383c17.92 0 32.5-14.587 32.5-32.517v-408.27c0-17.93-14.58-32.517-32.5-32.517zm-54.383 494.5c0 1.379-1.122 2.5-2.5 2.5h-56.596c-1.378 0-2.5-1.121-2.5-2.5v-21.196h61.596z"/><path d="m285.976 458.304h-253.476c-9.649 0-17.5-7.858-17.5-17.517v-298.221c0-4.143-3.358-7.5-7.5-7.5s-7.5 3.357-7.5 7.5v298.221c0 17.93 14.58 32.517 32.5 32.517h39.383v21.196c0 9.649 7.851 17.5 17.5 17.5h56.596c9.649 0 17.5-7.851 17.5-17.5v-21.196h122.498c4.142 0 7.5-3.357 7.5-7.5s-3.359-7.5-7.501-7.5zm-137.497 36.196c0 1.379-1.122 2.5-2.5 2.5h-56.596c-1.378 0-2.5-1.121-2.5-2.5v-21.196h61.596z"/><path d="m52 396.263c-12.131 0-22 9.874-22 22.01s9.869 22.01 22 22.01h42c12.131 0 22-9.874 22-22.01s-9.869-22.01-22-22.01zm49 22.009c0 3.865-3.14 7.01-7 7.01h-42c-3.86 0-7-3.145-7-7.01s3.14-7.01 7-7.01h42c3.86.001 7 3.145 7 7.01z"/><path d="m240 131.587c-4.142 0-7.5 3.357-7.5 7.5v13.009c0 4.143 3.358 7.5 7.5 7.5s7.5-3.357 7.5-7.5v-13.009c0-4.143-3.358-7.5-7.5-7.5z"/><path d="m271 131.587c-4.142 0-7.5 3.357-7.5 7.5v13.009c0 4.143 3.358 7.5 7.5 7.5s7.5-3.357 7.5-7.5v-13.009c0-4.143-3.358-7.5-7.5-7.5z"/><path d="m30 183.632v134.004c0 8.305 4.148 15.975 11.096 20.518l154.672 101.137c3.996 2.612 8.631 3.993 13.403 3.993h250.329c12.407 0 22.5-10.098 22.5-22.51v-65.774c0-4.143-3.358-7.5-7.5-7.5s-7.5 3.357-7.5 7.5v32.265h-112.5v-14.765c0-5.524-3.107-10.334-7.664-12.781 4.543-5.004 7.019-11.282 7.018-17.943 0-8.309-3.994-15.419-7.344-19.92-.161-.217-.161-.496 0-.712 3.351-4.5 7.345-11.608 7.345-19.92 0-15.315-13.315-27.775-29.683-27.775-12.282 0-23.124 6.902-27.622 17.584-.501 1.19-1.56 2.095-2.807 2.51l-9.568-5.296c-11.471-6.349-19.122-17.741-20.815-30.533 1.565-.891 3.02-2.044 4.308-3.458l20.606-22.646c5.545-6.086 8.726-14.732 8.726-23.722v-21.776h31.5c9.649 0 17.5-7.854 17.5-17.507v-.505h79.054c.543 7.769 6.238 14.37 13.955 15.94l27.991 5.703v130.257c0 4.143 3.358 7.5 7.5 7.5s7.5-3.357 7.5-7.5v-267.47c0-12.412-10.093-22.511-22.5-22.511h-407c-12.407.001-22.5 10.099-22.5 22.511v55.021.058 75.964zm15-66.884 24.997 5.092c1.161.236 2.003 1.27 2.003 2.457v42.589c0 1.188-.842 2.221-2.002 2.457l-24.998 5.093zm422 304.026c0 4.141-3.364 7.51-7.5 7.51h-250.328c-1.85 0-3.646-.535-5.195-1.548l-37.425-24.472h300.448zm-127.5-47.774v14h-167v-14zm-29.125-76.146c2.117-5.027 7.662-8.405 13.797-8.405 8.096 0 14.683 5.731 14.683 12.774 0 4.203-2.38 8.281-4.377 10.963-4.147 5.57-4.147 13.057 0 18.627 1.997 2.683 4.377 6.761 4.376 10.962 0 3.284-1.44 6.41-4.057 8.801-2.804 2.563-6.578 3.975-10.625 3.975-6.136 0-11.681-3.378-13.797-8.404-3.03-7.196-10.116-11.885-18.063-11.944l-19.266-.118c-.016 0-.031 0-.047 0-4.12 0-7.474 3.328-7.499 7.454-.025 4.142 3.312 7.521 7.454 7.546l19.256.118c1.905.014 3.649 1.125 4.339 2.766.918 2.18 2.113 4.193 3.519 6.032h-88.178c1.956-2.524 3.488-5.369 4.449-8.47.052-.169.257-.298.477-.299l21.233-.14c4.142-.027 7.478-3.407 7.451-7.55-.027-4.125-3.38-7.45-7.499-7.45-.017 0-.034 0-.05 0l-21.232.14c-6.8.044-12.71 4.409-14.708 10.86-1.726 5.569-7.558 9.459-14.244 9.459-.043.001-.086.001-.129.001-4.085 0-8.035-1.593-10.853-4.382-1.656-1.639-3.631-4.429-3.64-8.395 0-4.201 2.38-8.279 4.378-10.962 4.147-5.572 4.146-13.058 0-18.626-1.997-2.683-4.377-6.762-4.377-10.963 0-3.743 1.893-7.291 5.191-9.734 2.649-1.961 6.02-3.041 9.492-3.041 6.625 0 12.457 3.89 14.182 9.46 1.999 6.45 7.908 10.814 14.753 10.86l75.48.028c.005 0 .011.001.016.001s.01-.001.015-.001h.047c7.936-.059 15.022-4.746 18.053-11.943zm-44.041-3.066-49.518-.019c-.221-.001-.427-.13-.479-.299-3.651-11.788-15.375-20.021-28.51-20.021-6.664 0-13.205 2.126-18.418 5.986-7.159 5.303-11.264 13.244-11.264 21.789 0 8.309 3.994 15.419 7.346 19.921.161.216.16.495 0 .71-3.351 4.501-7.346 11.609-7.346 19.936.014 6.628 2.499 12.935 7.025 17.925-4.56 2.446-7.671 7.257-7.671 12.784v14.765h-13.888l-94.306-61.665c-2.696-1.763-4.305-4.74-4.305-7.963v-127.894l27.991-5.702c7.718-1.571 13.412-8.172 13.956-15.941h78.053v.507c0 9.653 7.851 17.507 17.5 17.507h31.5v21.776c0 8.989 3.181 17.636 8.723 23.719l20.612 22.652c1.463 1.606 3.145 2.869 4.959 3.796 1.417 13.795 7.903 26.505 18.04 35.731zm-101.334-155.708v15.02h-78v-15.02zm117 69.81c0 5.298-1.754 10.262-4.817 13.623l-20.607 22.646c-.378.416-.78.663-1.075.663s-.697-.247-1.073-.66l-20.613-22.652c-3.06-3.358-4.814-8.322-4.814-13.62v-21.776h53v21.776zm49-39.284c0 1.382-1.122 2.507-2.5 2.507-41.821 0-104.415 0-146 0-1.378 0-2.5-1.125-2.5-2.507v-46.03c0-1.382 1.122-2.507 2.5-2.507h146c1.378 0 2.5 1.125 2.5 2.507zm15-30.526h79v15.02h-79zm96.001 31.262c-1.16-.235-2.001-1.269-2.001-2.456v-42.589c0-1.188.842-2.22 2.002-2.457l24.998-5.092v57.687zm-389.501-124.322h407c4.136 0 7.5 3.369 7.5 7.511v48.91l-27.992 5.702c-7.716 1.572-13.409 8.172-13.954 15.938h-79.054v-.504c0-9.653-7.851-17.507-17.5-17.507h-146c-9.649 0-17.5 7.854-17.5 17.507v.504h-78.054c-.545-7.766-6.238-14.366-13.954-15.938l-27.992-5.702v-48.911c0-4.141 3.364-7.51 7.5-7.51z"/></g></svg>