<?xml version="1.0" encoding="UTF-8"?>
<svg xmlns="http://www.w3.org/2000/svg" viewBox="0 0 64 64" width="512" height="512"><g id="Outline"><path d="M61,34a1,1,0,0,0-1,1V45a3,3,0,0,1-3,3H8a4,4,0,0,1-4-4V13a3,3,0,0,1,3-3H24a1,1,0,0,0,0-2H7a5.006,5.006,0,0,0-5,5V44a6.006,6.006,0,0,0,6,6H20.545a9.756,9.756,0,0,1-5.263,5.01L12.808,56H11a3,3,0,0,0-3,3v2a1,1,0,0,0,1,1H25a1,1,0,0,0,0-2H10V59a1,1,0,0,1,1-1H53a1,1,0,0,1,1,1v1H29a1,1,0,0,0,0,2H55a1,1,0,0,0,1-1V59a3,3,0,0,0-3-3H51.192l-2.474-.99A9.756,9.756,0,0,1,43.455,50H57a5.006,5.006,0,0,0,5-5V35A1,1,0,0,0,61,34ZM46.232,56H17.768a11.743,11.743,0,0,0,4.952-6H41.28A11.743,11.743,0,0,0,46.232,56Z"/><path d="M57,8H38a1,1,0,0,0,0,2H57a3,3,0,0,1,3,3V31a1,1,0,0,0,2,0V13A5.006,5.006,0,0,0,57,8Z"/><path d="M20.063,13.649l-2.374,6.33a2.721,2.721,0,0,0,1.687,3.534,2.734,2.734,0,0,0,3.19-1.18l2-3.333H26a1,1,0,0,0,2,0V18a1,1,0,0,0-1-1H24a1,1,0,0,0-.857.485L20.852,21.3a.72.72,0,0,1-.843.311.719.719,0,0,1-.447-.934l2.171-5.789L27.083,14h7.566l4.726,3.781a1,1,0,0,0,.767.209l4.757-.68a.959.959,0,0,1,.768.227.949.949,0,0,1,.333.729.966.966,0,0,1-.845.957l-5.936.742-3.7-2.222A1,1,0,0,0,34,18.6V22H27a1,1,0,0,0-.986.835l-.886,5.315-4.4.85H17a1,1,0,0,0-1,1v7a1,1,0,0,0,1,1,5,5,0,0,0,4.639-3.159l8.461-.846a1,1,0,0,0,.795-.548l2.552-5.105L36.1,29.667l.916,5.5A1,1,0,0,0,38,36h3a3.006,3.006,0,0,1,2.829,2H38a1,1,0,0,0,0,2h7a1,1,0,0,0,1-1,5,5,0,0,0-3.176-4.644l-.83-7.466a1,1,0,0,0-.439-.722L36,22.465v-2.1l2.485,1.491a.992.992,0,0,0,.639.135l6.279-.784a2.965,2.965,0,1,0-.787-5.877l-4.329.618-4.662-3.73A1,1,0,0,0,35,12h-.556A3.959,3.959,0,0,0,35,10V3a1,1,0,0,0-1-1H32a5.006,5.006,0,0,0-5,5v3a3.959,3.959,0,0,0,.556,2H27a.9.9,0,0,0-.164.014l-6,1A1,1,0,0,0,20.063,13.649ZM20,33a3.006,3.006,0,0,1-2,2.829V31h2Zm20.772,1H38.847l-.861-5.165a1,1,0,0,0-.539-.73l-4-2a1,1,0,0,0-1.342.448L29.353,32.06,22,32.8v-2l4.189-.81a1,1,0,0,0,.8-.817L27.847,24H34.7l5.361,3.574ZM32,4h1V6H29.171A3.006,3.006,0,0,1,32,4Zm-3,6V8h4v2a2,2,0,0,1-4,0Z"/><path d="M22,40a3,3,0,0,0-2.816,2H13a1,1,0,0,0,0,2h6.184a2.982,2.982,0,0,0,5.632,0H53a1,1,0,0,0,0-2H24.816A3,3,0,0,0,22,40Zm0,4a1,1,0,1,1,1-1A1,1,0,0,1,22,44Z"/><path d="M57,39a1,1,0,0,0,1-1V22a1,1,0,0,0-1-1H53a1,1,0,0,0-1,1V38a1,1,0,0,0,1,1Zm-3-8h2v2H54Zm2-2H54V27h2Zm0,8H54V35h2ZM54,23h2v2H54Z"/><path d="M7,21h4a1,1,0,0,0,0-2H7a1,1,0,0,0,0,2Z"/><path d="M7,25h4a1,1,0,0,0,0-2H7a1,1,0,0,0,0,2Z"/><path d="M12,28a1,1,0,0,0-1-1H7a1,1,0,0,0,0,2h4A1,1,0,0,0,12,28Z"/><path d="M11,32a1,1,0,0,0-1-1H7a1,1,0,0,0,0,2h3A1,1,0,0,0,11,32Z"/><path d="M7,35a1,1,0,0,0,0,2H9a1,1,0,0,0,0-2Z"/></g></svg>
