<svg id="Layer_1" data-name="Layer 1" xmlns="http://www.w3.org/2000/svg" viewBox="0 0 512 512"><defs><style>.cls-1{fill:#fff;}</style></defs><path class="cls-1" d="M278.26,126.28a4.21,4.21,0,0,1-.13-.64c0-2.06,3-3.48,5.28-3.48,1.42,0,2.51.45,2.83,1.68l9.85,34.89,9.79-34.89c.32-1.23,1.42-1.68,2.83-1.68,2.26,0,5.28,1.48,5.28,3.48a2.59,2.59,0,0,1-.13.64L301.5,166.77c-.58,1.94-3,2.84-5.41,2.84s-4.76-.9-5.4-2.84Z"/><path class="cls-1" d="M318.43,124.74a2.62,2.62,0,0,1,2.71-2.58h12.74c8.44,0,15.26,3.22,15.26,13.46,0,7.4-3.6,11.39-8.43,12.87l8.43,15.65a1.71,1.71,0,0,1,.32,1c0,2.12-2.76,4.37-5.21,4.37a3.29,3.29,0,0,1-2.9-2l-9.14-17.77H326.8v16.8c0,1.74-2.06,2.64-4.18,2.64s-4.19-.9-4.19-2.64V124.74Zm8.37,4.76v13.71h7.08c4.19,0,6.89-1.74,6.89-6.82s-2.7-6.89-6.89-6.89Z"/><path class="cls-1" d="M497.07,484.47l-4.28-25A7.5,7.5,0,1,0,478,462l4.28,25a8.57,8.57,0,0,1-8.44,10H421.27l-9.39-57.7a7.5,7.5,0,0,0-14.81,2.41l9,55.29H107.33l9-55.29a7.5,7.5,0,0,0-14.81-2.41L92.14,497H39.56a8.55,8.55,0,0,1-8.43-10l10.24-60a63,63,0,0,1,35.72-46.42,7.53,7.53,0,0,0,2.69-1.16,60.65,60.65,0,0,1,6.3-2.15l90-19.13a144.73,144.73,0,0,0,161.23,0l90,19.13A62.89,62.89,0,0,1,472,427a7.5,7.5,0,0,0,14.79-2.53,78,78,0,0,0-55.69-61.71,3.69,3.69,0,0,0-.45-.11l-93.39-19.85-9-1.92c-5.82-1.17-12.33-9.14-12.33-18.06v-26c13.84-12.41,28.26-27,34.35-35.94a101.12,101.12,0,0,0,17.38-51.31l.26-4.76h3.5a14.2,14.2,0,0,0,13.35-9.4h7.71A15.46,15.46,0,0,0,407.91,180V115a15.46,15.46,0,0,0-15.44-15.45h-7.71a14.2,14.2,0,0,0-12.29-9.36,99.46,99.46,0,0,0-24.88-53.59C314.54.54,266,0,263.25,0h-13c-2.11,0-51.12.27-84.41,36.61a99.46,99.46,0,0,0-24.88,53.6,14.18,14.18,0,0,0-12.33,9.36H120.9A15.46,15.46,0,0,0,105.46,115v25H93.77A25.76,25.76,0,0,0,68,165.75V368.32a78,78,0,0,0-41.44,56.16l-10.25,60A23.57,23.57,0,0,0,39.56,512H473.84a23.57,23.57,0,0,0,23.23-27.53ZM385.59,114.57h6.87a.45.45,0,0,1,.45.45v65a.45.45,0,0,1-.45.45h-6.87Zm-68.16,238a129.81,129.81,0,0,1-121.47,0c10.38-6,16.53-18.87,16.53-29.76V309.61c6.15,4.9,11.28,8.48,14.22,9.74a76.77,76.77,0,0,0,60,0c2.95-1.26,8.08-4.84,14.22-9.74v13.22C300.91,333.73,307.08,346.57,317.43,352.6ZM176.89,46.75C205.61,15.39,249.76,15,250.21,15h13c.65,0,44.51.31,73.3,31.75a84.18,84.18,0,0,1,20.77,43.42H156.11A84.16,84.16,0,0,1,176.89,46.75Zm-34.11,58.42H370.59v84.67H287.15a22,22,0,0,1-11.36-3.16,36.85,36.85,0,0,0-38.21,0,22,22,0,0,1-11.36,3.16H212.68a7.5,7.5,0,0,0,0,15h13.54a37,37,0,0,0,19.11-5.32,21.91,21.91,0,0,1,22.71,0,37,37,0,0,0,19.1,5.32h65.75l-.22,3.92a86.23,86.23,0,0,1-14.79,43.71c-10.83,15.9-50.2,50.15-57.07,53.08a61.71,61.71,0,0,1-48.22,0c-2.25-1-10.5-7-22.54-17.6l-.19-.18c-1.48-1.31-3-2.68-4.61-4.13-13.78-12.53-25.16-24.48-29.72-31.17a86.25,86.25,0,0,1-14.8-43.72l-.22-3.91h17.24a7.5,7.5,0,0,0,0-15h-35ZM120.46,115a.45.45,0,0,1,.45-.45h6.87v65.87h-6.87a.45.45,0,0,1-.45-.45ZM83,165.75A10.75,10.75,0,0,1,93.77,155h11.69v25a15.47,15.47,0,0,0,15.45,15.45h7.7a14.2,14.2,0,0,0,13.35,9.4h3.53l.27,4.75a101.24,101.24,0,0,0,17.37,51.32c6.09,8.95,20.52,23.53,34.36,35.94v26c0,8.92-6.51,16.89-12.41,18.08l-9,1.9L83,362.59Z"/></svg>