<svg id="Capa_1" data-name="Capa 1" xmlns="http://www.w3.org/2000/svg" viewBox="0 0 512 512"><defs><style>.cls-1{fill:#fff;}</style></defs><path class="cls-1" d="M479.5,0H32.5A32.55,32.55,0,0,0,0,32.52v75a7.5,7.5,0,0,0,15,0v-75A17.53,17.53,0,0,1,32.5,15h447A17.53,17.53,0,0,1,497,32.52V440.79a17.52,17.52,0,0,1-17.5,17.51H321a7.5,7.5,0,0,0,0,15h27.52v21.2A17.52,17.52,0,0,0,366,512h56.6a17.52,17.52,0,0,0,17.5-17.5V473.3H479.5A32.54,32.54,0,0,0,512,440.79V32.52A32.55,32.55,0,0,0,479.5,0ZM425.12,494.5a2.51,2.51,0,0,1-2.5,2.5H366a2.5,2.5,0,0,1-2.5-2.5V473.3h61.6Z"/><path class="cls-1" d="M286,458.3H32.5A17.52,17.52,0,0,1,15,440.79V142.57a7.5,7.5,0,0,0-15,0V440.79A32.54,32.54,0,0,0,32.5,473.3H71.88v21.2A17.52,17.52,0,0,0,89.38,512H146a17.52,17.52,0,0,0,17.5-17.5V473.3H286a7.5,7.5,0,0,0,0-15Zm-137.5,36.2A2.5,2.5,0,0,1,146,497H89.38a2.51,2.51,0,0,1-2.5-2.5V473.3h61.6Z"/><path class="cls-1" d="M52,396.26a22,22,0,0,0,0,44H94a22,22,0,0,0,0-44Zm49,22a7,7,0,0,1-7,7H52a7,7,0,0,1,0-14H94A7,7,0,0,1,101,418.27Z"/><path class="cls-1" d="M240,131.59a7.5,7.5,0,0,0-7.5,7.5v13a7.5,7.5,0,1,0,15,0v-13A7.5,7.5,0,0,0,240,131.59Z"/><path class="cls-1" d="M271,131.59a7.5,7.5,0,0,0-7.5,7.5v13a7.5,7.5,0,1,0,15,0v-13A7.5,7.5,0,0,0,271,131.59Z"/><path class="cls-1" d="M30,183.63v134a24.42,24.42,0,0,0,11.1,20.51L195.77,439.29a24.43,24.43,0,0,0,13.4,4H459.5A22.52,22.52,0,0,0,482,420.77V355a7.5,7.5,0,0,0-15,0v32.27H354.5V372.5a14.53,14.53,0,0,0-7.66-12.78,26.46,26.46,0,0,0,7-17.94c0-8.31-4-15.42-7.34-19.92a.6.6,0,0,1,0-.72c3.35-4.5,7.35-11.6,7.35-19.92,0-15.31-13.32-27.77-29.69-27.77-12.28,0-23.12,6.9-27.62,17.58a4.58,4.58,0,0,1-2.81,2.51l-9.57-5.29a41.06,41.06,0,0,1-20.81-30.54,17.78,17.78,0,0,0,4.31-3.45l20.6-22.65A35.44,35.44,0,0,0,297,207.89V186.11h31.5A17.52,17.52,0,0,0,346,168.6v-.5h79.05A17.57,17.57,0,0,0,439,184l28,5.7V320a7.5,7.5,0,0,0,15,0V52.53A22.53,22.53,0,0,0,459.5,30H52.5A22.53,22.53,0,0,0,30,52.53v131.1Zm15-66.88,25,5.09a2.52,2.52,0,0,1,2,2.46v42.59a2.5,2.5,0,0,1-2,2.45l-25,5.1Zm422,304a7.51,7.51,0,0,1-7.5,7.51H209.17a9.47,9.47,0,0,1-5.19-1.54l-37.43-24.48H467ZM339.5,373v14h-167V373Zm-29.12-76.15c2.11-5,7.66-8.4,13.79-8.4,8.1,0,14.69,5.73,14.69,12.77,0,4.21-2.38,8.28-4.38,11a15.48,15.48,0,0,0,0,18.62c2,2.69,4.38,6.76,4.37,11a11.91,11.91,0,0,1-4.05,8.8,15.68,15.68,0,0,1-10.63,4c-6.13,0-11.68-3.38-13.79-8.4a19.67,19.67,0,0,0-18.07-11.95l-19.26-.11H273a7.5,7.5,0,0,0-.05,15l19.26.11a4.75,4.75,0,0,1,4.34,2.77,27.44,27.44,0,0,0,3.52,6H211.89a26.64,26.64,0,0,0,4.45-8.47.5.5,0,0,1,.48-.3l21.23-.14a7.5,7.5,0,0,0-.05-15H238l-21.23.14A15.43,15.43,0,0,0,202,345.09c-1.72,5.57-7.56,9.46-14.24,9.46h-.13a15.46,15.46,0,0,1-10.85-4.38,11.7,11.7,0,0,1-3.64-8.39c0-4.21,2.38-8.28,4.37-11a15.48,15.48,0,0,0,0-18.62c-2-2.69-4.37-6.76-4.37-11a12.16,12.16,0,0,1,5.19-9.73,16,16,0,0,1,9.49-3c6.62,0,12.46,3.89,14.18,9.46a15.44,15.44,0,0,0,14.75,10.86l75.48,0h.08a19.68,19.68,0,0,0,18.06-11.95Zm-44.05-3.06-49.51,0a.49.49,0,0,1-.48-.3c-3.65-11.79-15.38-20-28.51-20a31.1,31.1,0,0,0-18.42,6,27,27,0,0,0-11.27,21.79c0,8.31,4,15.42,7.35,19.92a.59.59,0,0,1,0,.71c-3.35,4.51-7.35,11.61-7.35,19.94a26.67,26.67,0,0,0,7,17.93,14.49,14.49,0,0,0-7.67,12.78v14.76H143.61L49.3,325.6a9.49,9.49,0,0,1-4.3-8V189.74L73,184A17.57,17.57,0,0,0,87,168.1H165v.51a17.52,17.52,0,0,0,17.5,17.5H214v21.78a35.46,35.46,0,0,0,8.72,23.72l20.61,22.65a17.57,17.57,0,0,0,5,3.8,56.17,56.17,0,0,0,18,35.73ZM165,138.08v15H87v-15Zm117,69.81a20.28,20.28,0,0,1-4.82,13.62l-20.6,22.65a1.75,1.75,0,0,1-1.08.66,1.73,1.73,0,0,1-1.07-.66l-20.61-22.65A20.33,20.33,0,0,1,229,207.89V186.11h53v21.78Zm49-39.28a2.5,2.5,0,0,1-2.5,2.5h-146a2.5,2.5,0,0,1-2.5-2.5v-46a2.5,2.5,0,0,1,2.5-2.51h146a2.5,2.5,0,0,1,2.5,2.51Zm15-30.53h79v15H346Zm96,31.26a2.5,2.5,0,0,1-2-2.45V124.3a2.52,2.52,0,0,1,2-2.46l25-5.09v57.68ZM52.5,45h407a7.51,7.51,0,0,1,7.5,7.51v48.91l-28,5.7a17.57,17.57,0,0,0-14,15.94H346v-.5a17.52,17.52,0,0,0-17.5-17.51h-146A17.52,17.52,0,0,0,165,122.58v.5H87a17.57,17.57,0,0,0-14-15.94l-28-5.7V52.53A7.51,7.51,0,0,1,52.5,45Z"/></svg>