<svg id="Capa_1" data-name="Capa 1" xmlns="http://www.w3.org/2000/svg" viewBox="0 0 512 512"><defs><style>.cls-1{fill:#fff;}</style></defs><path class="cls-1" d="M206.66,412.85H107.74a25.42,25.42,0,0,1-25.4-25.4V359.64a30.43,30.43,0,0,0,6.82.8,28.18,28.18,0,0,0,3.17-.17,30.64,30.64,0,0,0,5.1-1v28.15a10.33,10.33,0,0,0,10.31,10.31h96.94a7.55,7.55,0,0,0,0-15.1H112.53V349.44l.15-.18a30.27,30.27,0,0,0-2.42-40.76,29.93,29.93,0,0,0,12.81-9.22,30.25,30.25,0,0,0-2.43-40.75,30.22,30.22,0,0,0,8.41-51.75l-16.52-13.42V45.29H146l.22.68a18.91,18.91,0,0,0,18.1,13.25h58.34A18.94,18.94,0,0,0,240.72,46l.21-.68h30V150a7.55,7.55,0,0,0,15.1,0V40.5a10.33,10.33,0,0,0-10.31-10.31H238.9a12.28,12.28,0,0,0-11.74,8.59l-.83,2.62a3.89,3.89,0,0,1-3.72,2.72H164.27a3.88,3.88,0,0,1-3.71-2.71l-.83-2.63A12.28,12.28,0,0,0,148,30.19H107.74A10.33,10.33,0,0,0,97.43,40.5V181.15a29.9,29.9,0,0,0-15.09-5.84V98.48a7.55,7.55,0,0,0-15.1-.08,30.24,30.24,0,0,0-34.43,49.51l34.43,28v1.84a30.24,30.24,0,0,0-8.91,49.38,30.24,30.24,0,0,0-10.36,50,30.2,30.2,0,0,0-8.41,51.73L67.24,351.3v36.15a40.55,40.55,0,0,0,40.5,40.5h98.92a7.55,7.55,0,0,0,0-15.1ZM42.32,136.19a15.14,15.14,0,1,1,19.09-23.5l5.83,4.73v39Zm25.33,59.67a15,15,0,0,1,10.18-5.51,14.39,14.39,0,0,1,1.59-.09,15.07,15.07,0,0,1,9.52,3.39l30.6,24.85A15.14,15.14,0,1,1,100.45,242l-30.6-24.85a15.13,15.13,0,0,1-2.2-21.29Zm-10.39,50a15.1,15.1,0,0,1,20.89-2.51l12.79,10.39c.14.12.29.21.44.33l17.77,14.43A15.14,15.14,0,0,1,90.06,292l-30.6-24.85a15.14,15.14,0,0,1-2.2-21.29Zm-13.7,61.08A15.12,15.12,0,0,1,67.7,293.27L80.55,303.7c.14.12.3.22.45.33l17.76,14.42A15.14,15.14,0,1,1,79.67,342L49.08,317.11A15.06,15.06,0,0,1,43.56,306.92Z"/><path class="cls-1" d="M74.79,73.86a7.55,7.55,0,0,0,7.55-7.55V40.5a25.42,25.42,0,0,1,25.4-25.4h168a25.42,25.42,0,0,1,25.4,25.4V179.78a7.55,7.55,0,0,0,15.1,0V40.5A40.55,40.55,0,0,0,275.72,0h-168a40.55,40.55,0,0,0-40.5,40.5V66.31a7.55,7.55,0,0,0,7.55,7.55Z"/><path class="cls-1" d="M488.57,499.56,437.08,439a7.54,7.54,0,0,0-11.5,9.77l51.49,60.58a7.55,7.55,0,1,0,11.5-9.78Z"/><path class="cls-1" d="M303.75,478.58a7.58,7.58,0,0,0-4.78-2.86,64.74,64.74,0,0,1-52.82-50.62l-2.78-13.55a64.35,64.35,0,0,1,7.13-44.85l37.34-65.51a24,24,0,0,0-1.93-26.75l-35-44.86a34.88,34.88,0,0,1,1.22-44.3l1.87-2.14a3.94,3.94,0,0,1,5.84-.11l33.37,35.4a7.54,7.54,0,1,0,11-10.35l-33.37-35.41a19,19,0,0,0-28.2.55l-1.87,2.14a50,50,0,0,0-1.75,63.5l35,44.86a9,9,0,0,1,.72,10l-37.34,65.5a79.44,79.44,0,0,0-8.81,55.37l2.78,13.54a80,80,0,0,0,62.18,61.95l14.54,19a7.55,7.55,0,1,0,12-9.18Z"/><path class="cls-1" d="M396.7,391.48a10.66,10.66,0,0,1-2.55-6.91V345.71a106,106,0,0,0-28.95-72.94L326.3,231.5a7.55,7.55,0,1,0-11,10.36l38.9,41.27a90.91,90.91,0,0,1,24.85,62.58v38.86a25.81,25.81,0,0,0,6.13,16.69l19.48,22.92a7.57,7.57,0,0,0,5.76,2.66,7.56,7.56,0,0,0,5.75-12.44Z"/><path class="cls-1" d="M193.44,82.24a35.11,35.11,0,1,0,16.42,66.13L221.45,160a7.55,7.55,0,0,0,10.68-10.68L221.4,138.56a35.09,35.09,0,0,0-28-56.32Zm-20,35.11a20,20,0,1,1,20,20A20,20,0,0,1,173.43,117.35Z"/><path class="cls-1" d="M212.93,339.79h-59a2.22,2.22,0,0,1-2.21-2.21v-32.3a2.22,2.22,0,0,1,2.21-2.21h75.77a7.55,7.55,0,1,0,0-15.09H153.89a17.32,17.32,0,0,0-17.3,17.3v32.3a17.33,17.33,0,0,0,17.3,17.31h59a7.55,7.55,0,0,0,0-15.1Z"/></svg>