<svg id="Layer_1" data-name="Layer 1" xmlns="http://www.w3.org/2000/svg" viewBox="0 0 512 512"><defs><style>.cls-1{fill:#fff;}</style></defs><g id="Outline"><path class="cls-1" d="M488,272a8,8,0,0,0-8,8v80a24,24,0,0,1-24,24H64a32,32,0,0,1-32-32V104A24,24,0,0,1,56,80H192a8,8,0,0,0,0-16H56a40.05,40.05,0,0,0-40,40V352a48.05,48.05,0,0,0,48,48H164.36a78.06,78.06,0,0,1-42.1,40.08L102.46,448H88a24,24,0,0,0-24,24v16a8,8,0,0,0,8,8H200a8,8,0,0,0,0-16H80v-8a8,8,0,0,1,8-8H424a8,8,0,0,1,8,8v8H232a8,8,0,0,0,0,16H440a8,8,0,0,0,8-8V472a24,24,0,0,0-24-24H409.54l-19.8-7.92A78.06,78.06,0,0,1,347.64,400H456a40.05,40.05,0,0,0,40-40V280A8,8,0,0,0,488,272ZM369.86,448H142.14a93.91,93.91,0,0,0,39.62-48H330.24A93.91,93.91,0,0,0,369.86,448Z"/><path class="cls-1" d="M456,64H304a8,8,0,0,0,0,16H456a24,24,0,0,1,24,24V248a8,8,0,0,0,16,0V104A40.05,40.05,0,0,0,456,64Z"/><path class="cls-1" d="M160.5,109.19l-19,50.64a21.78,21.78,0,0,0,12.77,28l.73.25a21.87,21.87,0,0,0,25.52-9.44l16-26.66H208a8,8,0,0,0,16,0v-8a8,8,0,0,0-8-8H192a8,8,0,0,0-6.86,3.88L166.82,170.4a5.75,5.75,0,0,1-10.39-4.78,1.18,1.18,0,0,1,.07-.2l17.36-46.32,42.8-7.1h60.53L315,142.25a8,8,0,0,0,6.14,1.67l38.05-5.44a7.72,7.72,0,1,1,2.05,15.3l-47.49,5.94-29.6-17.78A8,8,0,0,0,272,148.8V176H216a8,8,0,0,0-7.89,6.68L201,225.2l-35.2,6.8H136a8,8,0,0,0-8,8v56a8,8,0,0,0,8,8,40,40,0,0,0,37.11-25.27L240.8,272a8,8,0,0,0,6.36-4.38l20.42-40.84,21.22,10.6,7.33,44A8,8,0,0,0,304,288h24a24,24,0,0,1,22.63,16H304a8,8,0,0,0,0,16h56a8,8,0,0,0,8-8,40,40,0,0,0-25.41-37.15L336,215.12a8,8,0,0,0-3.51-5.78L288,179.72v-16.8l19.88,11.93a8,8,0,0,0,5.11,1.08l50.23-6.27a23.72,23.72,0,1,0-5.66-47.1l-.63.08-34.63,4.94L285,97.74A8,8,0,0,0,280,96h-4.45A31.64,31.64,0,0,0,280,80V24a8,8,0,0,0-8-8H256a40.05,40.05,0,0,0-40,40V80a31.64,31.64,0,0,0,4.45,16H216a7.17,7.17,0,0,0-1.31.11l-48,8A8,8,0,0,0,160.5,109.19ZM160,264a24,24,0,0,1-16,22.63V248h16Zm166.18,8h-15.4l-6.89-41.32a8,8,0,0,0-4.31-5.84l-32-16a8,8,0,0,0-10.74,3.58h0l-22,44.06L176,262.4v-16l33.51-6.48a8,8,0,0,0,6.4-6.54L222.78,192H277.6l42.89,28.59ZM256,32h8V48H233.37A24,24,0,0,1,256,32ZM232,80V64h32V80a16,16,0,0,1-32,0Z"/><path class="cls-1" d="M176,320a24,24,0,0,0-22.53,16H104a8,8,0,0,0,0,16h49.47a23.86,23.86,0,0,0,45.06,0H424a8,8,0,0,0,0-16H198.53A24,24,0,0,0,176,320Zm0,32a8,8,0,1,1,8-8A8,8,0,0,1,176,352Z"/><path class="cls-1" d="M456,312a8,8,0,0,0,8-8V176a8,8,0,0,0-8-8H424a8,8,0,0,0-8,8V304a8,8,0,0,0,8,8Zm-24-64h16v16H432Zm16-16H432V216h16Zm0,64H432V280h16ZM432,184h16v16H432Z"/><path class="cls-1" d="M56,168H88a8,8,0,0,0,0-16H56a8,8,0,0,0,0,16Z"/><path class="cls-1" d="M56,200H88a8,8,0,0,0,0-16H56a8,8,0,0,0,0,16Z"/><path class="cls-1" d="M96,224a8,8,0,0,0-8-8H56a8,8,0,0,0,0,16H88A8,8,0,0,0,96,224Z"/><path class="cls-1" d="M88,256a8,8,0,0,0-8-8H56a8,8,0,0,0,0,16H80A8,8,0,0,0,88,256Z"/><path class="cls-1" d="M56,280a8,8,0,0,0,0,16H72a8,8,0,0,0,0-16Z"/></g></svg>