<svg id="Layer_1" data-name="Layer 1" xmlns="http://www.w3.org/2000/svg" viewBox="0 0 512 512"><defs><style>.cls-1{fill:#fff;}</style></defs><path class="cls-1" d="M474.5,71.5H448.24a7.5,7.5,0,0,0,0,15H474.5A22.52,22.52,0,0,1,497,109v34.5H15V109A22.52,22.52,0,0,1,37.5,86.5H415.31a7.5,7.5,0,0,0,0-15H37.5A37.54,37.54,0,0,0,0,109v82.68a7.5,7.5,0,0,0,15,0V158.5H497V351.87a7.5,7.5,0,0,0,15,0V109A37.54,37.54,0,0,0,474.5,71.5Z"/><path class="cls-1" d="M504.5,376a7.5,7.5,0,0,0-7.5,7.5V403a22.52,22.52,0,0,1-22.5,22.5H37.5A22.52,22.52,0,0,1,15,403V223.87a7.5,7.5,0,0,0-15,0V403a37.54,37.54,0,0,0,37.5,37.5h437A37.54,37.54,0,0,0,512,403V383.49A7.5,7.5,0,0,0,504.5,376Z"/><path class="cls-1" d="M108.48,234.46a7.49,7.49,0,0,0-10.6,0L52.81,279.53a7.48,7.48,0,0,0,0,10.6l44.47,44.48A7.5,7.5,0,1,0,107.89,324L68.71,284.83l39.77-39.77a7.49,7.49,0,0,0,0-10.6Z"/><path class="cls-1" d="M209.34,334.61a7.52,7.52,0,0,0,10.61,0l44.47-44.48a7.48,7.48,0,0,0,0-10.6l-45.07-45.07a7.5,7.5,0,0,0-10.6,10.6l39.77,39.77L209.34,324a7.5,7.5,0,0,0,0,10.61Z"/><path class="cls-1" d="M132,362.23a7.49,7.49,0,0,0,7-4.84L192.3,217a7.5,7.5,0,0,0-14-5.33L125,352.07a7.5,7.5,0,0,0,4.35,9.67,7.32,7.32,0,0,0,2.66.49Z"/><path class="cls-1" d="M33,115.37a22.5,22.5,0,1,0,22.5-22.5A22.52,22.52,0,0,0,33,115.37Zm30,0a7.5,7.5,0,1,1-7.5-7.5A7.51,7.51,0,0,1,63,115.37Z"/><path class="cls-1" d="M91.17,115.37a22.5,22.5,0,1,0,22.5-22.5A22.52,22.52,0,0,0,91.17,115.37Zm30,0a7.5,7.5,0,1,1-7.5-7.5A7.51,7.51,0,0,1,121.17,115.37Z"/><path class="cls-1" d="M149.32,115.37a22.5,22.5,0,1,0,22.5-22.5A22.53,22.53,0,0,0,149.32,115.37Zm30,0a7.5,7.5,0,1,1-7.5-7.5A7.5,7.5,0,0,1,179.32,115.37Z"/><path class="cls-1" d="M335.5,242.37h47a22.5,22.5,0,0,0,0-45h-47a22.5,22.5,0,0,0,0,45Zm0-30h47a7.5,7.5,0,0,1,0,15h-47a7.5,7.5,0,0,1,0-15Z"/><path class="cls-1" d="M335.5,302.37h124a22.5,22.5,0,0,0,0-45h-124a22.5,22.5,0,0,0,0,45Zm0-30h124a7.5,7.5,0,0,1,0,15h-124a7.5,7.5,0,0,1,0-15Z"/><path class="cls-1" d="M335.5,362.37h87.17a22.5,22.5,0,0,0,0-45H335.5a22.5,22.5,0,0,0,0,45Zm0-30h87.17a7.5,7.5,0,0,1,0,15H335.5a7.5,7.5,0,0,1,0-15Z"/></svg>